<?xml version="1.0" encoding="UTF-8" standalone="no"?>
<!-- Created with Inkscape (http://www.inkscape.org/) -->

<svg
   xmlns:dc="http://purl.org/dc/elements/1.1/"
   xmlns:cc="http://creativecommons.org/ns#"
   xmlns:rdf="http://www.w3.org/1999/02/22-rdf-syntax-ns#"
   xmlns:svg="http://www.w3.org/2000/svg"
   xmlns="http://www.w3.org/2000/svg"
   xmlns:sodipodi="http://sodipodi.sourceforge.net/DTD/sodipodi-0.dtd"
   xmlns:inkscape="http://www.inkscape.org/namespaces/inkscape"
   width="210mm"
   height="297mm"
   viewBox="0 0 210 297"
   version="1.1"
   id="svg8"
   sodipodi:docname="pera-nai-chill.svg"
   inkscape:version="0.92.4 (5da689c313, 2019-01-14)">
  <defs
     id="defs2">
    <inkscape:perspective
       sodipodi:type="inkscape:persp3d"
       inkscape:vp_x="0 : 148.5 : 1"
       inkscape:vp_y="0 : 1000 : 0"
       inkscape:vp_z="210 : 148.5 : 1"
       inkscape:persp3d-origin="105 : 99 : 1"
       id="perspective3732" />
  </defs>
  <sodipodi:namedview
     id="base"
     pagecolor="#ffffff"
     bordercolor="#666666"
     borderopacity="1.0"
     inkscape:pageopacity="0.0"
     inkscape:pageshadow="2"
     inkscape:zoom="0.5"
     inkscape:cx="44.372557"
     inkscape:cy="592.72857"
     inkscape:document-units="mm"
     inkscape:current-layer="layer1"
     showgrid="false"
     inkscape:window-width="1366"
     inkscape:window-height="705"
     inkscape:window-x="-8"
     inkscape:window-y="-8"
     inkscape:window-maximized="1" />
  <metadata
     id="metadata5">
    <rdf:RDF>
      <cc:Work
         rdf:about="">
        <dc:format>image/svg+xml</dc:format>
        <dc:type
           rdf:resource="http://purl.org/dc/dcmitype/StillImage" />
      </cc:Work>
    </rdf:RDF>
  </metadata>
  <g
     inkscape:label="Layer 1"
     inkscape:groupmode="layer"
     id="layer1">
    <path
       inkscape:connector-curvature="0"
       id="path16"
       style="font-style:normal;font-variant:normal;font-weight:bold;font-stretch:normal;font-size:50.79999924px;line-height:1.25;font-family:'Kalpurush ANSI';-inkscape-font-specification:'Kalpurush ANSI Bold';letter-spacing:0px;word-spacing:0px;fill:#ffb380;fill-opacity:1;stroke:none;stroke-width:0.26458332"
       d="m 78.736187,85.005956 c 0.777213,0 1.413867,-0.181901 1.909961,-0.545703 0.51263,-0.380339 0.917773,-0.859896 1.215429,-1.438672 0.297657,-0.595313 0.504362,-1.240234 0.620117,-1.934765 0.132292,-0.711068 0.198438,-1.397331 0.198438,-2.058789 0,-0.859896 -0.08268,-1.678451 -0.248047,-2.455664 -0.148828,-0.79375 -0.347265,-1.570964 -0.595312,-2.331641 -0.231511,-0.760677 -0.487826,-1.521354 -0.768946,-2.282031 -0.281119,-0.760677 -0.545703,-1.537891 -0.79375,-2.331641 -0.23151,-0.810287 -0.429947,-1.653646 -0.595312,-2.530078 -0.148828,-0.876432 -0.223242,-1.802474 -0.223242,-2.778125 0,-0.892969 0.07441,-1.769401 0.223242,-2.629297 0.148828,-0.876432 0.37207,-1.711523 0.669726,-2.505273 h -8.135937 l 6.425595,-5.581055 19.305132,0.566964 -7.995376,5.014091 v 0 c 0,0 -1.5875,0.181901 -2.133203,0.545703 -0.529167,0.347265 -0.942578,0.79375 -1.240234,1.339453 -0.28112,0.545703 -0.471289,1.149284 -0.570508,1.810742 -0.08268,0.661459 -0.124023,1.298112 -0.124023,1.909961 0,1.504818 0.165364,2.869076 0.496093,4.092773 0.330729,1.207162 0.694532,2.389519 1.091407,3.547071 0.413411,1.141015 0.785481,2.306836 1.11621,3.497461 0.330729,1.190625 0.496094,2.513541 0.496094,3.96875 0,1.273307 -0.157096,2.546614 -0.471289,3.819921 -0.314193,1.273307 -0.810286,2.422591 -1.488281,3.447852 -0.677995,1.008724 -1.554427,1.835547 -2.629297,2.480469 -1.058333,0.628385 -2.339909,0.942578 -3.844726,0.942578 h -3.671094 v -5.581055 z"
       sodipodi:nodetypes="scccscccccsccccccscccsccsssccsccs" />
    <path
       style="fill:#6c5353;stroke-width:0.1889881"
       d="M 64.653032,82.838283 64.18056,75.309249 62.186586,73.34163 c -1.269598,-2.617065 -3.230589,-5.841878 -3.552412,-5.841878 -0.537977,0 -2.737207,1.198636 -4.143513,2.258319 -1.735642,1.307846 -5.427045,5.064218 -6.741704,6.860358 -0.513538,0.701616 -1.003861,1.27567 -1.089605,1.27567 -0.314304,0 -4.655968,-3.694391 -4.670197,-3.973947 -0.0081,-0.158774 0.130043,-0.495324 0.306948,-0.747892 0.223922,-0.319694 0.342752,-0.94973 0.391107,-2.073672 0.06027,-1.400871 0.01146,-1.726973 -0.368892,-2.464906 -0.853573,-1.656011 -3.042055,-2.160688 -5.083718,-1.172337 -0.473072,0.22901 -0.904147,0.416383 -0.957942,0.416383 -0.05379,0 2.48187,-3.200974 1.067459,-3.490503 l -4.1264,-0.844671 0.241917,-0.808974 c 0.755157,-2.52526 3.025304,-5.307545 6.001115,-7.354957 1.185156,-0.815408 4.084913,-2.151919 5.537517,-2.552268 3.488023,-0.783524 7.265768,-0.07024 9.867037,1.454692 2.404912,1.428731 5.435153,4.706758 7.614365,8.237 l 0.566962,0.918462 0.05044,-4.866444 -0.327539,-1.653644 4.9105,-3.212798 h 4.532524 v 2.740327 2.740326 h -1.41741 -1.417412 V 74.870289 L 68.43279,84.130706 66.259428,90.5563 H 63.141126 Z M 51.119343,67.620061 c 2.018575,-1.637562 -2.836159,-6.94277 -0.964222,-6.464335 l 5.421441,1.385631 -0.328208,-0.571878 c -0.630457,-1.098524 -2.094849,-2.413633 -3.332543,-2.992819 -3.244543,-1.518306 -6.947911,-1.02521 -9.894107,1.317377 -1.350402,1.073734 -1.312175,1.346586 0.188989,1.34893 2.327799,0.0037 4.148138,1.40231 4.871003,3.742672 0.205378,0.664942 0.373417,1.412642 0.373417,1.661551 0,0.248909 -0.03571,0.08689 0.215196,2.436937 0.279945,2.622021 2.761829,-1.306576 3.449034,-1.864066 z"
       id="path25"
       inkscape:connector-curvature="0"
       sodipodi:nodetypes="cccsscsccsscsscsscccccccccccccccccssccsscssss" />
    <path
       style="fill:#d45500;stroke-width:0.1889881"
       d="M 98.9782,76.348973 98.92748,62.018198 98.358829,61.098533 c -0.760518,-1.229971 -1.832813,-1.780035 -3.75312,-1.925267 -0.7933,-0.06 -1.442365,-0.149759 -1.442365,-0.199469 0,-0.04971 0.648099,-1.238565 1.440225,-2.641894 l 1.440222,-2.551509 1.030772,0.121144 c 1.412981,0.166069 3.496677,2.822528 4.067077,1.508078 l 0.99864,0.670745 0.18899,-0.732139 c 0.21134,-0.818753 0.76239,-1.521151 1.19337,-1.521151 0.15639,0 1.80803,2.781959 3.75377,1.842633 l 3.46942,1.842635 -0.0506,2.740326 -0.0506,2.740327 -0.88252,0.05698 c -0.72477,0.0468 -1.15975,-0.0824 -2.43335,-0.722754 -1.14797,-0.577191 -1.60602,-0.724561 -1.76331,-0.567325 -0.15266,0.152614 -0.50309,4.255969 -0.26432,14.566133 l -0.0518,14.353719 h -3.11024 -3.110235 z"
       id="path3739"
       inkscape:connector-curvature="0"
       sodipodi:nodetypes="ccssscccsccsscccsscscccc" />
    <path
       style="fill:#917c6f;stroke-width:0.1889881"
       d="m 135.59771,90.281868 c -0.96107,-1.569971 -3.68851,-4.217027 -5.76599,-5.596062 -3.5151,-2.333334 -7.9638,-4.185457 -13.24607,-5.514747 l -3.13706,-0.789445 1.31231,-1.692701 c 1.46813,-1.893689 2.68302,-2.847438 6.98387,-5.482683 5.07415,-3.10906 10.62183,-5.593056 13.63308,-6.104252 l 0.78684,-0.133572 0.0567,-1.082202 0.0567,-1.082198 h -12.76613 -12.76613 v -2.645834 -2.645833 h 19.08781 19.08779 v 2.645833 2.645834 h -3.21279 c -1.76704,0 -3.2128,0.04107 -3.2128,0.09127 0,0.23618 -2.46908,26.772724 -2.57201,27.64273 l -0.11738,0.992187 -1.72636,-0.0067 -1.72636,-0.0067 -0.75596,-1.23489 z m -3.68526,-9.308121 c 0,-0.08915 -0.55235,-1.081778 -1.22746,-2.205828 -0.67509,-1.124051 -1.19264,-2.07853 -1.15011,-2.121067 0.17347,-0.173471 1.03475,0.452464 2.31018,1.678913 1.14381,1.099889 1.45093,1.298181 2.01068,1.298181 1.2962,0 1.4472,-0.309081 1.84885,-3.784404 0.19793,-1.712513 0.40155,-3.347535 0.4525,-3.633377 0.12419,-0.696746 -0.24906,-0.68575 -2.53124,0.07456 -3.12994,1.042739 -9.46192,4.496737 -9.46192,5.161331 0,0.135257 0.53153,0.439785 1.18118,0.676722 1.45059,0.529058 4.75784,2.089195 5.5279,2.607696 0.60618,0.408154 1.03944,0.511223 1.03944,0.247274 z"
       id="path3741"
       inkscape:connector-curvature="0" />
    <path
       style="fill:#c8ab37;stroke-width:0.1889881"
       d="m 148.93345,90.766424 c 0,-0.08712 1.36,-5.508714 3.02222,-12.047989 1.66223,-6.539275 3.02295,-12.084331 3.02382,-12.322345 0.002,-0.591359 -0.60723,-1.728298 -1.25678,-2.344795 -0.8305,-0.78822 -1.77723,-1.096706 -3.36578,-1.096706 h -1.42348 V 60.21426 57.473933 h 1.76959 c 2.86575,0 5.05257,0.593188 6.63235,1.799061 l 0.82942,0.633111 0.13076,-0.773941 c 0.0719,-0.425669 0.32972,-0.972907 0.5729,-1.216086 0.43679,-0.436792 0.49257,-0.442145 4.60847,-0.442145 h 4.16633 v 2.740327 2.740329 h -1.57251 c -1.34077,0 -1.72369,0.07659 -2.59839,0.519716 -1.04549,0.529653 -1.79577,1.397145 -1.99259,2.303878 -0.0956,0.440393 -5.73592,22.780079 -6.1701,24.437937 l -0.1856,0.708705 h -3.09531 c -1.70243,0 -3.09532,-0.07128 -3.09532,-0.158401 z"
       id="path3743"
       inkscape:connector-curvature="0" />
    <path
       style="fill:#87de87;stroke-width:0.47597137"
       d="m 126.57362,86.039869 c 0.17204,2.210103 -1.89511,4.117927 -4.62762,4.270955 -2.73251,0.153034 -5.10527,-1.506148 -5.31179,-3.71432 -0.20652,-2.208171 1.83068,-4.136938 4.56057,-4.317843 0,0 3.70748,4.828327 -0.63335,4.42062 -0.51238,-0.04811 1.99244,0.200308 3.36489,-0.054 1.37245,-0.254329 2.6473,-0.60539 2.6473,-0.60539 z"
       id="path3745"
       inkscape:connector-curvature="0"
       sodipodi:nodetypes="csscsscc" />
    <path
       id="text3750"
       transform="scale(0.26458333)"
       style="font-style:normal;font-variant:normal;font-weight:bold;font-stretch:normal;font-size:25.39999962px;line-height:5.25;font-family:'Comic Sans MS';-inkscape-font-specification:'Comic Sans MS Bold';text-align:center;letter-spacing:0px;word-spacing:0px;text-anchor:middle;fill:#000000;fill-opacity:1;stroke:none;stroke-width:0.99999994"
       d="m 719.20312,369.5957 c -3.68749,0 -6.78125,1.0625 -9.28124,3.1875 -2.625,2.3125 -3.9375,5.28125 -3.9375,8.90625 v 21.0918 c 8.65338,-2.118 17.27991,-4.34073 25.875,-6.67578 v -14.41602 c 0,-3.625 -1.18751,-6.53125 -3.5625,-8.71875 -2.375,-2.25 -5.40626,-3.375 -9.09376,-3.375 z m 52.5,0 c -3.68749,0 -6.78125,1.0625 -9.28124,3.1875 -2.625,2.3125 -3.9375,5.28125 -3.9375,8.90625 v 6.76172 c 8.64284,-2.63529 17.23755,-5.42199 25.7832,-8.35351 -0.30514,-2.8915 -1.45528,-5.27064 -3.4707,-7.12696 -2.375,-2.25 -5.40626,-3.375 -9.09376,-3.375 z m -219,0.28125 c -3.62499,0 -6.71875,1.15625 -9.28124,3.46875 -2.5625,2.25 -3.84376,5.15625 -3.84376,8.71875 10e-6,1.9375 0.28126,4.8125 0.84376,8.625 0.62499,3.75 0.93749,6.59375 0.9375,8.53125 0,2.5 -0.18751,7.4375 -0.5625,14.8125 l -0.1875,3.09375 c -0.097,6.48248 -0.1684,12.39771 -0.22852,18.06055 7.19624,-1.33497 14.38946,-2.68446 21.58789,-4.00781 1.29547,-0.23816 2.59266,-0.46781 3.88867,-0.70313 0.0624,-4.75522 0.2373,-9.54781 0.5332,-14.38086 0.375,-6.4375 0.5625,-12.78125 0.5625,-19.03125 10e-6,-7.75 -0.59375,-13.5 -1.78124,-17.25 -2.125,-6.625 -6.28126,-9.9375 -12.46876,-9.9375 z M 33.046875,374.6582 c -4.125,0 -7.8125,1.46875 -11.0625,4.40625 -3.1875,2.9375 -4.78125,6.28125 -4.78125,10.03125 0,3.75 0.375,9.34375 1.125,16.78125 0.75,7.4375 1.125,13.03125 1.125,16.78125 0,3.9375 0.09375,9.875 0.28125,17.8125 0.1875,7.9375 0.28125,13.875 0.28125,17.8125 0,3.6875 -0.125,9.21875 -0.375,16.59375 -0.25,7.375 -0.375,12.90625 -0.375,16.59375 0,1.55735 -0.115383,3.79007 -0.285156,6.3418 9.052782,-0.5602 18.103896,-1.13835 27.154297,-1.73633 -0.04021,-4.7473 -0.138238,-10.63802 -0.337891,-18.57422 -0.1875,-9.9375 -0.28125,-17.375 -0.28125,-22.3125 0,-3.6875 0.1875,-13.65625 0.5625,-29.90625 20.254761,26.19728 39.11502,48.46434 56.595705,66.84375 3.1945,-0.23445 6.38974,-0.46142 9.58398,-0.69922 15.14671,-1.12759 30.29702,-2.23026 45.44336,-3.375 0.0637,-10.14582 0.20831,-25.43896 0.50195,-50.30078 0.125,-9.1875 0.1875,-14.125 0.1875,-14.8125 0,-31.4375 -5.09375,-47.15625 -15.28124,-47.15625 -9.125,0 -13.6875,4.3125 -13.6875,12.9375 0,2.5 0.3125,5.9375 0.9375,10.3125 0.68749,4.9375 1.09375,8.3125 1.21874,10.125 0.625,10.75 0.9375,31.53125 0.9375,62.34375 0,7.5 -0.0312,12.25 -0.0937,14.25 -27.625,-25.5625 -55.625005,-58.59375 -84.000005,-99.09375 -5.625,-8 -10.75,-12 -15.375,-12 z m 479.625005,2.625 c -3.875,0 -7.18751,1.34375 -9.9375,4.03125 -1.6875,-0.375 -3.65626,-0.65625 -5.90626,-0.84375 -2.18749,-0.1875 -4.65625,-0.28125 -7.40624,-0.28125 -16.25,0 -32.15626,9.25 -47.71876,27.75 -14.01059,16.68839 -22.65399,33.12068 -25.94531,49.29688 8.64036,-1.37094 18.39622,-2.90323 28.53321,-4.49414 3.51305,-9.22109 9.45163,-18.81026 17.8496,-28.77149 10.3125,-12.25 19.40626,-18.375 27.28126,-18.375 3.99999,0 6.46875,0.21875 7.40624,0.65625 1.25,0.5625 2.50001,2.25 3.75,5.0625 2.6875,5.9375 6.84376,8.90625 12.46876,8.90625 4.49999,0 7.9375,-1.6875 10.3125,-5.0625 1.81249,-2.5625 2.71874,-5.40625 2.71874,-8.53125 10e-6,-7 -0.53125,-13.125 -1.59374,-18.375 -1.5,-7.3125 -5.43751,-10.96875 -11.8125,-10.96875 z m -209.4375,2.34375 c -4,0 -7.46876,1.34375 -10.40626,4.03125 -2.93749,2.6875 -4.40624,5.96875 -4.40624,9.84375 0,3.875 1.46875,7.15625 4.40624,9.84375 2.9375,2.6875 6.40626,4.03125 10.40626,4.03125 3.99999,0 7.4375,-1.34375 10.3125,-4.03125 2.93749,-2.6875 4.40624,-5.96875 4.40624,-9.84375 0,-3.875 -1.46875,-7.15625 -4.40624,-9.84375 -2.875,-2.6875 -6.31251,-4.03125 -10.3125,-4.03125 z m 367.125,0 c -4,0 -7.46876,1.34375 -10.40626,4.03125 -2.93749,2.6875 -4.40624,5.96875 -4.40624,9.84375 -10e-6,3.875 1.46875,7.15625 4.40624,9.84375 2.9375,2.6875 6.40626,4.03125 10.40626,4.03125 3.99999,0 7.4375,-1.34375 10.3125,-4.03125 2.93749,-2.6875 4.40624,-5.96875 4.40624,-9.84375 0,-3.875 -1.46875,-7.15625 -4.40624,-9.84375 -2.875,-2.6875 -6.31251,-4.03125 -10.3125,-4.03125 z m 114,21.5586 c -8.57722,2.85716 -17.20695,5.55693 -25.875,8.13281 V 511.3457 c -10e-6,3.75 1.21875,6.8125 3.65624,9.1875 2.4375,2.375 5.53126,3.5625 9.28126,3.5625 8.62499,0 12.9375,-5.9375 12.9375,-17.8125 z m -52.5,15.63086 c -8.59662,2.28553 -17.22485,4.45314 -25.875,6.5332 v 87.99609 c -10e-6,3.75 1.21875,6.8125 3.65624,9.1875 2.4375,2.375 5.53126,3.5625 9.28126,3.5625 8.62499,0 12.9375,-5.9375 12.9375,-17.8125 z m -134.625,4.06054 c -5.9375,0 -11.53126,1.125 -16.78126,3.375 -3.12339,1.3171 -6.13247,3.06136 -9.02929,5.2168 12.81454,-2.29159 25.64791,-4.48437 38.46875,-6.74219 -3.60742,-1.22839 -7.8224,-1.84961 -12.6582,-1.84961 z m -297.09376,0.9375 c -3.74999,0 -6.84375,1.1875 -9.28124,3.5625 -2.4375,2.3125 -3.65626,5.28125 -3.65626,8.90625 0,5.5625 -0.3125,12.53125 -0.9375,20.90625 -0.61894,8.29387 -0.92955,15.19878 -0.93554,20.73438 9.24151,-1.05977 17.81553,-2.09166 25.91601,-3.11914 0.0944,-4.95563 0.38547,-10.79372 0.89453,-17.61524 0.625,-8.375 0.9375,-15.34375 0.9375,-20.90625 0,-3.625 -1.21875,-6.59375 -3.65624,-8.90625 -2.4375,-2.375 -5.53126,-3.5625 -9.28126,-3.5625 z m -72.84374,0.375 c -15.5,0 -28.81251,5.375 -39.9375,16.125 -11.125,10.6875 -16.6875,23.5625 -16.6875,38.625 0,3.56113 0.19385,6.91413 0.5625,10.08203 8.6236,-0.67504 17.24398,-1.37596 25.86132,-2.12109 -0.29184,-2.21088 -0.45508,-4.59876 -0.45508,-7.21094 0,-8.75 3.18751,-16.4375 9.5625,-23.0625 6.375,-6.6875 13.81251,-10.03125 22.3125,-10.03125 0.6875,0 1.50001,0.15625 2.4375,0.46875 1,0.25 2.12501,0.6875 3.375,1.3125 -0.56249,3.1875 -1,6.09375 -1.3125,8.71875 -0.24999,2.5625 -0.375,4.84375 -0.375,6.84375 0,4.85612 0.41363,11.37263 1.22657,19.48047 8.604,-0.86787 16.75289,-1.70331 24.27539,-2.5 -0.12305,-2.73584 -0.18946,-5.6945 -0.18946,-8.91797 0,-5.0625 0.15626,-9.46875 0.46876,-13.21875 0.37499,-3.8125 0.875,-6.96875 1.5,-9.46875 1.43749,-1.6875 2.15624,-3.65625 2.15624,-5.90625 0,-5.375 -4.71875,-10.09375 -14.15624,-14.15625 -7.8125,-3.375 -14.68751,-5.0625 -20.625,-5.0625 z m 452.03515,7.27344 c -8.32656,1.82413 -16.6649,3.58407 -25.00976,5.2793 -0.0158,5.48947 -0.32281,12.28892 -0.93165,20.44726 -0.62499,8.375 -0.93749,15.34375 -0.9375,20.90625 0,3.5625 0.0938,9.28125 0.28126,17.15625 0.24999,7.875 0.375,13.59375 0.375,17.15625 -10e-6,3.625 1.21875,6.625 3.65624,9 2.4375,2.3125 5.53126,3.46875 9.28126,3.46875 3.74999,0 6.84375,-1.15625 9.28124,-3.46875 2.4375,-2.375 3.65626,-5.375 3.65626,-9 -10e-6,-3.5625 -0.12501,-9.28125 -0.375,-17.15625 -0.1875,-7.875 -0.28126,-13.59375 -0.28126,-17.15625 0,-5.5625 0.31251,-12.53125 0.9375,-20.90625 0.625,-8.375 0.9375,-15.34375 0.9375,-20.90625 0,-1.76308 -0.29449,-3.36771 -0.87109,-4.82031 z m -54.30078,10.86914 c -19.81896,3.58315 -39.69167,6.88394 -59.5,10.52735 -8.43432,1.55134 -16.86329,3.13098 -25.29492,4.69726 -0.0251,10.03566 0.0338,18.18859 0.18555,24.28906 -0.3125,15.5 -0.68751,23.9375 -1.125,25.3125 -0.6875,2.125 -1.03126,3.78125 -1.03126,4.96875 10e-6,3.4375 1.34376,6.34375 4.03126,8.71875 2.74999,2.3125 5.875,3.46875 9.375,3.46875 5.31249,0 9.1875,-2.5625 11.625,-7.6875 2.18749,-4.625 3.28124,-18.25 3.28124,-40.875 5,-8.9375 8.93751,-15 11.8125,-18.1875 5.625,-6.375 11.90626,-9.5625 18.84376,-9.5625 2.68749,0 4.3125,1.71875 4.875,5.15625 0.12499,0.75 0.1875,3.4375 0.1875,8.0625 0,1.5625 -0.0938,3.9375 -0.28126,7.125 -0.12499,3.125 -0.1875,5.46875 -0.1875,7.03125 0,5.6875 0.56251,12.9375 1.6875,21.75 1.25,9.1875 2.62501,16.3125 4.125,21.375 1.875,6.25 5.96876,9.375 12.28126,9.375 3.56249,0 6.65625,-1.15625 9.28124,-3.46875 2.6875,-2.25 4.03126,-5.125 4.03126,-8.625 0,-1 -0.15626,-2.15625 -0.46876,-3.46875 -1.24999,-5.1875 -2.3125,-11.25 -3.1875,-18.1875 -0.24999,-2.1875 -0.875,-8.3125 -1.875,-18.375 -0.37499,-7.75 -0.71875,-15.46875 -1.03124,-23.15625 -0.30909,-3.83779 -0.86449,-7.24321 -1.64063,-10.26367 z m -184.50586,33.24024 c -9.2138,1.45196 -18.04316,2.84181 -25.99805,4.10546 1.13132,11.03894 5.65159,20.79543 13.58204,29.26172 9.68749,10.25 21.5625,15.375 35.625,15.375 17.81249,0 35.3125,-7.25 52.5,-21.75 3.24999,-2.75 4.875,-5.96875 4.875,-9.65625 0,-3.3125 -1.21876,-6.25 -3.65626,-8.8125 -2.62499,-2.75 -5.8125,-4.125 -9.5625,-4.125 -2.49999,0 -6.1875,1.625 -11.0625,4.875 -7.24999,4.9375 -12,8 -14.25,9.1875 -6.37499,3.25 -12.65625,4.875 -18.84374,4.875 -6.375,0 -11.84376,-2.4375 -16.40626,-7.3125 -4.22183,-4.511 -6.4875,-9.85346 -6.80273,-16.02343 z m -129.04687,19.35937 c -8.04717,1.01041 -16.59581,2.02875 -25.79297,3.07617 0.18699,6.30659 0.29883,11.31938 0.29883,14.40039 0,3.625 1.21875,6.625 3.65624,9 2.4375,2.3125 5.53126,3.46875 9.28126,3.46875 3.74999,0 6.84375,-1.15625 9.28124,-3.46875 2.4375,-2.375 3.65625,-5.375 3.65626,-9 0,-3.5625 -0.12501,-9.28125 -0.375,-17.15625 -0.003,-0.1237 -0.003,-0.19767 -0.006,-0.32031 z m -49.77344,5.7168 c -10.68591,1.1357 -22.28084,2.32754 -35.23047,3.61523 -16.41983,1.63275 -32.86073,3.03789 -49.31055,4.34375 1.37034,2.40294 2.95332,4.5797 4.75782,6.51953 7.56249,8.0625 18.875,12.09375 33.9375,12.09375 3.06249,0 6.78125,-0.71875 11.15624,-2.15625 4.375,-1.375 9.43751,-3.4375 15.1875,-6.1875 6.25,6.25 10.81251,9.375 13.6875,9.375 3.3125,0 6.21876,-1.09375 8.71876,-3.28125 2.56249,-2.1875 3.84374,-4.9375 3.84374,-8.25 10e-6,-0.75 -1.21875,-3.8125 -3.65624,-9.1875 -1.34266,-2.96633 -2.37313,-5.25999 -3.0918,-6.88476 z m -105.12305,9.53906 c -11.73196,0.88271 -23.4647,1.75234 -35.19726,2.61914 2.07304,1.95277 4.13306,3.86654 6.16211,5.69531 5.49999,4.9375 10.4375,7.40625 14.8125,7.40625 7.87499,0 12.4375,-4.03125 13.6875,-12.09375 0.20399,-1.29596 0.37032,-2.46461 0.53515,-3.62695 z m -112.197264,8.04688 c -8.612188,0.56497 -17.225565,1.11197 -25.839844,1.64257 0.56712,2.0031 1.618523,3.79584 3.158203,5.375 2.75,2.8125 6.40625,4.21875 10.96875,4.21875 5.732495,0 9.631673,-3.75628 11.712891,-11.23632 z" />
    <path
       id="path3752"
       transform="scale(0.26458333)"
       style="fill:#87de87;stroke-width:1.41421354"
       d="m 32.349609,375.50977 c -4.673279,0.008 -12.195568,5.05767 -13.091797,8.78906 -0.426141,1.77422 -0.285268,19.13659 0.314454,38.58203 0.599721,19.44544 0.656157,48.71856 0.125,65.05273 -0.119974,3.68942 -0.214279,6.897 -0.28711,9.85157 8.559166,-0.53025 17.116793,-1.07657 25.673828,-1.64063 0.225099,-7.94865 0.36536,-17.90003 0.384766,-29.42383 l 0.07031,-42.42578 5.240235,6.32031 c 28.550302,34.43702 40.166278,47.94472 53.119143,61.42188 2.78627,-0.20488 5.5733,-0.40196 8.35937,-0.60938 14.69553,-1.094 29.39441,-2.16586 44.08985,-3.27343 1.01722,-32.16586 1.02325,-82.37526 -0.6211,-91.76563 -2.29471,-13.10439 -6.19879,-18.63934 -13.53125,-19.18359 -4.55496,-0.3381 -6.31725,0.28548 -9.05273,3.19726 l -3.39649,3.61524 1.68164,18.01758 c 1.95683,20.9808 2.26119,83.77734 0.40625,83.77734 -1.77493,0 -29.41238,-29.05769 -42.978511,-45.1875 C 82.60959,433.1988 69.397935,416.30493 59.496094,403.08203 41.243844,378.70802 38.085915,375.50077 32.349609,375.50977 Z M 155.37891,508.27734 c -10.91052,0.81911 -21.82138,1.63027 -32.73243,2.43555 10.12984,9.45143 14.73629,11.85931 20.08594,11.86523 6.43591,0.007 9.53534,-1.9487 11.7168,-7.39062 0.33793,-0.84302 0.64803,-3.31841 0.92969,-6.91016 z m -111.980472,8.02149 c -7.827196,0.51233 -15.655452,1.00823 -23.484376,1.49219 0.863122,4.8679 2.702539,6.22295 6.134766,7.60546 8.271027,3.3316 14.339557,0.11912 17.34961,-9.09765 z" />
    <path
       id="path3754"
       transform="scale(0.26458333)"
       style="fill:#87de87;stroke-width:1.41421354"
       d="m 225.52734,423.46875 c -20.32845,0.22448 -40.33757,12.24209 -49.7207,32.26563 -3.4059,7.26816 -3.81755,9.77749 -3.78125,23.00781 0.009,3.32342 0.0512,5.96967 0.15625,8.20508 8.2438,-0.64721 16.48462,-1.31759 24.72266,-2.0293 -0.21227,-1.9286 -0.33103,-3.98178 -0.33789,-6.15625 -0.0356,-11.25718 2.92516,-18.28125 11.01367,-26.13672 5.96336,-5.79153 17.9103,-10.0188 22.99804,-8.13672 3.06641,1.13434 3.19487,1.91944 3.7461,23.01758 0.13191,5.04877 0.28232,9.65209 0.42773,13.82422 8.35116,-0.84362 16.28435,-1.65721 23.61133,-2.4336 -0.0179,-2.11387 -0.0257,-4.49911 -0.0352,-7.22656 -0.0545,-15.74063 0.481,-23.24034 1.9004,-26.60547 1.78927,-4.24202 1.71505,-5.04745 -0.77149,-8.48633 -1.51082,-2.08946 -6.25247,-5.56684 -10.53711,-7.72851 -7.43504,-3.75111 -15.43796,-5.4687 -23.39258,-5.38086 z m 35.35352,75.26563 c -10.46943,1.11057 -21.77643,2.2734 -34.40625,3.52929 -2.73812,0.27227 -5.47758,0.52662 -8.2168,0.78711 -0.53691,0.0637 -1.07072,0.11682 -1.60156,0.15234 -12.7336,1.20076 -25.47808,2.28628 -38.22852,3.30274 6.82661,11.32233 16.32235,16.3468 31.74024,17.16992 9.66874,0.5162 12.72545,0.0678 21.02734,-3.07422 5.34287,-2.02214 10.18933,-3.67578 10.76758,-3.67578 0.57826,0 3.4524,1.90874 6.38867,4.24219 6.28039,4.99103 10.2561,5.33135 15.36524,1.3125 4.86424,-3.82621 4.71698,-7.41425 -0.79297,-19.21094 -0.82123,-1.75823 -1.49247,-3.20602 -2.04297,-4.53515 z" />
    <path
       id="path3756"
       transform="scale(0.26458333)"
       style="fill:#87de87;stroke-width:1.41421354"
       d="m 299.18164,422.75195 c -2.9554,0.0989 -5.82669,1.16654 -7.9043,3.24414 -2.7464,2.7464 -3.18215,5.35421 -4.36914,26.13086 -0.41199,7.21135 -0.62469,15.50165 -0.69726,23.69727 8.90574,-1.02436 17.18839,-2.02449 25.0332,-3.01953 0.12355,-11.67527 0.43427,-22.96502 0.82422,-28.27735 0.94364,-12.85524 0.85555,-13.44889 -2.58203,-17.44531 -2.56645,-2.98367 -6.50489,-4.45721 -10.30469,-4.33008 z m 12.02344,70.21485 c -7.76507,0.97386 -16.00828,1.95697 -24.83789,2.96484 0.26902,10.12073 0.80794,18.04091 1.59765,19.97656 0.56492,1.38466 2.70128,3.45217 4.74805,4.59571 4.95374,2.76768 11.45439,1.52351 15.38867,-2.94727 2.77609,-3.15507 3.12909,-4.48835 3.10352,-24.58984 z" />
    <path
       id="path3758"
       transform="scale(0.26458333)"
       style="fill:#87de87;stroke-width:1.41421354"
       d="m 298.41406,384.17773 c -4.43108,-0.003 -8.07639,2.37416 -9.20312,8.00782 -0.76583,3.82914 10.00207,10.17004 14.26367,14.43164 3.89057,3.89056 -2.56304,-11.5 1.5,-11.5 10.91944,0 16.11088,4.59734 9.00195,-3.03321 -4.51118,-4.84217 -10.5406,-7.90263 -15.5625,-7.90625 z" />
    <path
       id="path3760"
       transform="scale(0.26458333)"
       style="fill:#87de87;stroke-width:1.41421354"
       d="m 514.38477,379.44531 c -3.65441,-0.0561 -10.04073,0.47053 -22.08008,1.35352 -20.12828,1.47624 -27.74669,5.22058 -43.8418,21.54883 -17.16605,17.41471 -27.88928,36.05551 -31.60156,54.71289 8.18516,-1.29839 17.50036,-2.76025 27.01562,-4.25391 6.61766,-17.08409 24.36247,-39.67241 36.01758,-45.20312 2.78194,-1.32011 7.82687,-2.4004 11.21094,-2.4004 5.70117,10e-6 6.51846,0.49242 11.11523,6.7168 4.16727,5.64279 5.80397,6.78854 10.23047,7.15625 4.14627,0.34442 6.0568,-0.34977 8.96289,-3.25586 3.51887,-3.51888 3.66946,-4.28631 3.20117,-16.24609 -0.39512,-10.09109 -1.08013,-13.3371 -3.49023,-16.54492 -1.86177,-2.478 -2.04172,-3.5119 -6.74023,-3.58399 z m -74.05079,94.15821 c -8.77702,1.38325 -17.26317,2.71622 -24.89062,3.92773 0.21579,6.35383 1.16702,9.02621 4.45117,15.69727 5.51737,11.20737 15.60302,20.86546 26.16797,25.05859 6.05956,2.40524 9.71055,2.82775 20.78516,2.40625 15.39369,-0.58588 23.18227,-3.27343 38.50195,-13.28125 15.88269,-10.37562 18.80678,-16.8358 11.10547,-24.53711 -5.50828,-5.50828 -9.18184,-5.21823 -20.00586,1.57617 -13.93042,8.74431 -21.08973,11.72217 -29.76563,12.38281 -15.59313,1.18738 -25.39559,-8.27795 -26.34961,-23.23046 z" />
    <path
       id="path3762"
       transform="scale(0.26458333)"
       style="fill:#87de87;stroke-width:1.41421354"
       d="m 549.04102,371.3125 c -7.71238,-0.0858 -7.4985,5.49933 -8.0293,63.75781 6.98599,-1.29568 13.96896,-2.60595 20.95703,-3.89062 1.32348,-0.24331 2.64861,-0.47841 3.97266,-0.71875 l -0.36719,-23.03906 c -0.40334,-25.32679 -0.66997,-27.78883 -3.4082,-31.46485 -2.35599,-3.16286 -4.27426,-4.0754 -9.26758,-4.4082 -1.46824,-0.0979 -2.74507,-0.22396 -3.85742,-0.23633 z m 49.17578,50.86133 c -9.98741,0 -18.04936,2.25252 -24.83008,6.94336 11.39664,-2.02864 22.80714,-3.98559 34.20898,-5.98633 -2.73264,-0.6454 -5.83,-0.95703 -9.3789,-0.95703 z m 25.74218,18.35156 c -9.04153,1.62985 -18.09244,3.20805 -27.14453,4.7832 1.05936,0.12208 2.05379,0.41581 2.96289,0.90235 2.60584,1.3946 2.83594,2.95341 2.83594,19.31836 0,18.87501 3.14272,44.6154 6.40039,52.41211 1.0769,2.57737 3.41848,5.27206 5.20313,5.98828 5.55622,2.22989 9.22815,1.61923 13.89843,-2.31055 4.0509,-3.4086 4.42743,-4.37208 3.73829,-9.54492 -4.22092,-31.68298 -5.19922,-40.85917 -5.19922,-48.71875 0,-8.16367 -1.03905,-16.48839 -2.69532,-22.83008 z m -33.86328,5.95508 c -8.1934,1.4305 -16.38496,2.87443 -24.56445,4.37891 -8.25449,1.51827 -16.50396,3.06306 -24.75586,4.5957 -0.33104,25.03125 -0.8009,45.87682 -1.17383,49.75976 -0.77753,8.09579 -0.56014,9.08049 2.73438,12.375 4.85075,4.85075 13.23614,4.95297 17.68554,0.2168 3.6991,-3.93751 5.74997,-15.53978 5.79297,-32.7832 0.0261,-10.47234 0.43263,-12.07836 5,-19.79883 5.473,-9.25131 12.78425,-16.07544 19.28125,-18.74414 z" />
    <path
       id="path3764"
       transform="scale(0.26458333)"
       style="fill:#87de87;stroke-width:1.41421354"
       d="m 677.91211,429.77539 c -7.52108,1.64008 -15.05198,3.22463 -22.58789,4.75977 -0.68837,5.66316 -1.02928,16.25796 -1.44531,37.73242 -0.70535,36.40851 -0.54821,40.61655 1.63671,43.95117 1.32897,2.02826 3.81089,4.24888 5.51563,4.93555 1.70475,0.68668 3.85375,1.28859 4.77539,1.33789 3.3223,0.17772 8.78829,-2.65831 10.19727,-5.29102 0.83292,-1.55632 1.74679,-20.6512 2.17187,-45.35742 0.48884,-28.41255 0.5989,-37.98114 -0.26367,-42.06836 z" />
    <path
       id="path3766"
       transform="scale(0.26458333)"
       style="fill:#87de87;stroke-width:1.41421354"
       d="m 662.58203,384.08008 c -0.81557,0.0468 -1.5503,0.3734 -2.16601,1.0625 -6.27819,7.02652 9.43339,8.81225 17.51171,12.07226 0,0 -9.63668,-13.46219 -15.3457,-13.13476 z m 15.3457,13.13476 c 13.13944,9.7825 15.51991,6.26306 0,0 z" />
    <path
       id="path3768"
       transform="scale(0.26458333)"
       style="fill:#87de87;stroke-width:1.41421354"
       d="m 719.63281,370.375 c -4.54565,-0.0428 -10.27608,2.73639 -11.49023,5.90039 -0.31413,0.81863 -0.53597,11.42924 -0.67774,26.13867 7.91574,-1.94858 15.80908,-3.98253 23.67578,-6.11328 -0.26087,-17.21096 -0.93375,-18.98548 -2.67968,-21.20508 -1.56511,-1.98972 -4.70155,-4.02352 -6.96875,-4.52148 -0.58438,-0.12835 -1.21,-0.19311 -1.85938,-0.19922 z m 11.64453,46.59961 c -7.95866,2.11095 -15.94448,4.1202 -23.94922,6.05469 -0.15918,40.46417 0.12991,92.75374 0.85547,94.64453 0.50532,1.31685 2.89124,3.23861 5.30274,4.26953 2.4115,1.03093 5.97537,1.50768 7.91992,1.06055 9.91199,-2.27921 9.90039,-2.18056 9.90039,-77.9668 0,-11.37369 -0.01,-20.22743 -0.0293,-28.0625 z" />
    <path
       id="path3770"
       transform="scale(0.26458333)"
       style="fill:#87de87;stroke-width:1.41421354"
       d="m 772.63672,370.18359 c -4.29739,-0.13698 -10.06577,2.39531 -11.68555,5.42188 -0.30546,0.57075 -0.57432,4.93157 -0.78906,12.32422 7.61272,-2.3387 15.18944,-4.79039 22.72656,-7.35938 -0.42266,-4.12764 -1.08538,-5.08137 -2.125,-6.19726 -1.57716,-1.69289 -4.4525,-3.47451 -6.39062,-3.96094 -0.53741,-0.13488 -1.12242,-0.20895 -1.73633,-0.22852 z m 10.89258,31.27344 c -7.87546,2.61362 -15.79399,5.09821 -23.7461,7.47461 -0.12299,10.80692 -0.19336,23.71618 -0.19336,38.35742 v 69.14453 l 3.18164,2.89453 c 1.75009,1.5922 4.13797,3.24343 5.30469,3.66993 3.14695,1.15038 3.73008,1.12241 7.61719,-0.35547 7.85297,-2.98569 7.9375,-3.81607 7.9375,-77.50586 0,-20.04014 -0.0144,-33.65204 -0.10156,-43.67969 z" />
  </g>
</svg>
